<svg width="221" height="32" viewBox="0 0 221 32" fill="none" xmlns="http://www.w3.org/2000/svg">
<g clip-path="url(#clip0_18889_162781)">
<path d="M220.934 6.22176C221 5.73287 221.133 5.82176 218.959 5.55509C216.762 5.28842 217.317 4.99954 217.117 6.02176C216.851 7.55509 216.407 9.28842 216.319 9.79954C216.119 10.9773 215.475 12.8218 214.898 15.1106C213.944 12.844 213.146 11.5106 212.68 10.7106C210.993 7.88843 211.659 7.91064 209.884 8.51064C209.174 8.75509 208.508 8.91065 208.686 9.33287C208.885 9.79953 208.996 9.88842 208.974 9.91065C208.02 11.2884 206.822 13.044 206.511 13.5329C206.001 14.3106 205.712 14.7773 205.535 15.0662L205.18 12.444L205.002 10.8218C204.936 10.0884 204.847 9.53287 204.803 9.17731C204.736 8.73287 204.692 8.31065 204.625 7.91065C204.425 6.59954 204.47 6.82176 203.715 6.82176C203.205 6.82176 202.096 7.11064 201.541 7.19953C199.921 7.48842 200.609 8.64398 200.831 9.91065C200.942 10.5773 201.008 10.8884 201.053 11.0662C201.452 14.444 201.652 17.4884 201.63 20.1329C201.607 20.5329 201.585 20.9329 201.585 21.3329C201.563 21.8218 201.519 22.9551 201.563 23.2884C201.74 24.2884 202.628 24.0662 204.093 24.0662C204.869 24.0662 205.402 24.1106 205.49 23.8884C205.712 23.2662 206.533 21.5106 207.687 19.044C208.375 17.5995 209.129 15.9995 209.928 14.6662C210.172 14.2884 210.394 13.8884 210.438 13.844C210.461 13.8662 211.038 14.9995 211.082 15.0662C211.37 15.5106 212.435 17.8662 213.345 19.9551C214.765 23.2218 215.076 25.4662 216.23 25.0884C217.45 24.6884 218.471 24.7329 218.382 23.7551C218.271 22.4218 218.67 20.7773 218.715 20.3551L219.558 15.7995C220.246 11.5329 220.801 8.82176 220.845 7.48843C220.889 7.31065 220.934 6.37731 220.934 6.22176Z" fill="#030064"/>
<path d="M204.492 6.68936C203.116 6.62269 201.762 7.06713 200.431 7.28935C200.254 7.31158 200.32 7.57825 200.498 7.55602C201.807 7.35602 203.138 6.91158 204.492 6.97824C204.669 6.97824 204.669 6.71158 204.492 6.68936Z" fill="#030064"/>
<path d="M211.348 8.02233C210.927 8.13344 210.505 8.26677 210.083 8.4001C209.706 8.53344 209.351 8.66677 208.996 8.82233C208.841 8.889 208.907 9.15566 209.063 9.08899C209.418 8.93344 209.795 8.80011 210.15 8.66677C210.572 8.53344 210.993 8.4001 211.415 8.28899C211.592 8.22232 211.503 7.95566 211.348 8.02233Z" fill="#030064"/>
<path d="M218.027 24.5333C217.605 24.6444 217.184 24.7777 216.762 24.9111C216.385 25.0444 216.03 25.1777 215.675 25.3333C215.52 25.4 215.586 25.6666 215.741 25.6C216.096 25.4444 216.474 25.3111 216.829 25.1777C217.25 25.0444 217.672 24.9111 218.093 24.8C218.271 24.7555 218.204 24.4889 218.027 24.5333Z" fill="#030064"/>
<path d="M209.373 9.84441C209.307 9.71108 209.218 9.55552 209.152 9.42219C209.041 9.24441 208.93 9.06664 208.819 8.88886C208.774 8.82219 208.685 8.79997 208.619 8.84441C208.552 8.88886 208.53 8.97775 208.574 9.04442C208.685 9.22219 208.796 9.39997 208.907 9.57775C208.996 9.71108 209.063 9.86664 209.129 9.99997C209.174 10.0666 209.263 10.0889 209.329 10.0444C209.373 9.99997 209.396 9.91108 209.373 9.84441Z" fill="#030064"/>
<path d="M215.875 25.2892C215.786 25.2225 215.653 25.0003 215.586 24.8892C215.409 24.6003 215.253 24.3114 215.098 24.0003C214.632 23.1336 214.211 22.2448 213.789 21.3559C212.879 19.4225 211.992 17.467 211.126 15.4892C210.904 14.9781 210.638 14.4448 210.461 13.8892C210.416 13.7114 210.15 13.8003 210.194 13.9559C210.328 14.4225 210.549 14.867 210.749 15.3114C211.126 16.2225 211.526 17.1114 211.925 18.0003C212.813 20.0003 213.722 22.0003 214.743 23.9559C214.921 24.3114 215.12 24.667 215.32 25.0225C215.431 25.2003 215.542 25.4225 215.719 25.5336C215.897 25.6225 216.03 25.4003 215.875 25.2892Z" fill="#030064"/>
<path d="M200.209 7.39963C200.298 7.64407 200.343 7.88852 200.387 8.13297C200.453 8.55519 200.498 8.97741 200.542 9.39963C200.675 10.6219 200.764 11.8663 200.831 13.1107C201.008 15.7996 201.142 18.4885 201.297 21.1774C201.341 21.9552 201.341 22.7552 201.475 23.533C201.497 23.7107 201.763 23.6441 201.741 23.4663C201.63 22.8663 201.63 22.133 201.586 21.5107C201.519 20.2885 201.452 19.0663 201.386 17.8441C201.23 15.1552 201.097 12.4441 200.853 9.75519C200.809 9.24408 200.742 8.73297 200.675 8.22186C200.631 7.93297 200.609 7.62186 200.476 7.35519C200.409 7.17741 200.143 7.24407 200.209 7.39963Z" fill="#030064"/>
<path d="M217.428 5.71111C217.028 6.91111 216.585 8.08889 216.141 9.26667C215.564 10.8 214.965 12.3556 214.255 13.8444C214.055 14.2889 213.833 14.8667 213.456 15.2C213.323 15.3111 213.523 15.5111 213.656 15.4C213.966 15.1111 214.166 14.6667 214.366 14.2889C214.699 13.6222 214.987 12.9333 215.275 12.2444C215.941 10.6667 216.54 9.06667 217.117 7.46667C217.317 6.91111 217.517 6.37778 217.694 5.82222C217.761 5.6 217.494 5.53333 217.428 5.71111Z" fill="#030064"/>
<path d="M217.25 5.15558C217.029 5.55558 216.895 6.02225 216.74 6.46669C216.496 7.22224 216.274 7.9778 216.052 8.73335C215.564 10.4 215.12 12.0889 214.677 13.7778C214.521 14.3556 214.388 14.9111 214.255 15.4889C214.211 15.6667 214.477 15.7334 214.521 15.5556C214.81 14.3111 215.143 13.0667 215.475 11.8445C215.919 10.1778 216.363 8.51113 216.895 6.86669C217.051 6.35558 217.206 5.7778 217.472 5.31113C217.583 5.13335 217.339 5.00002 217.25 5.15558Z" fill="#030064"/>
<path d="M205.579 24.1333C207.021 20.8444 208.53 17.5777 210.372 14.4888C210.461 14.3333 210.217 14.1999 210.128 14.3555C208.286 17.4444 206.777 20.711 205.335 23.9999C205.268 24.1555 205.49 24.2888 205.579 24.1333Z" fill="#030064"/>
<path d="M198.856 22.3111L197.635 19.8222C196.548 17.6222 195.572 15.3777 194.684 13.1111L192.044 6.28884C191.644 5.39995 191.955 5.17773 191.178 5.17773C190.712 5.17773 188.427 5.26662 188.05 5.48884C187.451 5.86662 187.872 6.22218 187.983 6.88884C188.028 7.08884 188.072 7.28884 188.161 7.51106L185.21 14.6888C184.455 16.5111 183.279 18.8 181.859 21.5555C181.304 22.6444 181.216 23.0666 181.282 23.1333C181.726 23.5333 181.97 23.7555 182.458 23.9777C183.146 24.2888 183.102 24.2666 183.59 24.3555C184.522 24.5111 184.389 24.1111 185.01 23.7777C187.828 22.3333 190.535 21.1555 192.954 20.5333C193.752 22.5111 194.24 23.7333 194.462 24.1555C194.973 25.1555 195.638 25.6444 196.415 25.6444C197.058 25.6444 197.125 25.6222 197.857 25.4222C200.12 24.8222 200.298 25.1555 198.856 22.3111ZM191.866 17.6888C190.357 17.9333 188.893 18.2888 187.473 18.7333C188.494 16.2444 189.337 14.1555 189.98 12.5555C190.579 14.2444 191.201 15.9555 191.866 17.6888Z" fill="#030064"/>
<path d="M188.827 8.33384C188.56 7.95606 188.383 7.51161 188.227 7.06717C188.028 6.48939 187.872 5.91161 187.783 5.31161C187.761 5.13384 187.495 5.2005 187.517 5.37828C187.606 6.0005 187.761 6.6005 187.983 7.17828C188.138 7.62272 188.338 8.06717 188.605 8.46717C188.693 8.62273 188.915 8.46717 188.827 8.33384Z" fill="#030064"/>
<path d="M193.53 20.6896C190.801 21.4452 188.027 22.2896 185.453 23.5118C185.032 23.7118 184.61 23.9341 184.211 24.1785C184.056 24.2674 184.189 24.5118 184.344 24.423C185.409 23.7563 186.607 23.2674 187.805 22.823C189.691 22.1119 191.644 21.5118 193.597 20.9563C193.774 20.9118 193.708 20.623 193.53 20.6896Z" fill="#030064"/>
<path d="M198.922 25.1778C198.456 25.2889 197.99 25.4001 197.524 25.4667C196.925 25.5556 196.326 25.5556 195.727 25.5778C195.549 25.5778 195.549 25.8667 195.727 25.8445C196.348 25.8445 196.969 25.8223 197.569 25.7334C198.057 25.6667 198.523 25.5556 199.011 25.4445C199.166 25.4001 199.1 25.1334 198.922 25.1778Z" fill="#030064"/>
<path d="M191.8 5.00033C191.156 4.9781 190.535 4.91144 189.891 4.91144C189.115 4.88922 188.338 4.95588 187.561 5.08921C187.384 5.11144 187.451 5.3781 187.628 5.35588C188.382 5.24477 189.159 5.1781 189.936 5.20032C190.557 5.22255 191.156 5.26699 191.777 5.28921C191.977 5.28921 191.977 5.00033 191.8 5.00033Z" fill="#030064"/>
<path d="M190.202 11.6008C189.98 12.623 189.625 13.623 189.292 14.6008C188.871 15.8675 188.427 17.1341 187.872 18.3564C187.695 18.7564 187.517 19.2008 187.229 19.5341C187.118 19.6675 187.295 19.8675 187.428 19.7341C187.695 19.4453 187.85 19.0675 188.005 18.7341C188.272 18.1786 188.493 17.623 188.715 17.0453C189.204 15.7564 189.647 14.4453 190.069 13.1341C190.224 12.6453 190.357 12.1786 190.468 11.6897C190.513 11.5119 190.246 11.423 190.202 11.6008Z" fill="#030064"/>
<path d="M191.777 5.37823C191.977 6.17823 192.354 6.95601 192.665 7.73378C193.286 9.2449 193.908 10.756 194.529 12.2671C195.927 15.6005 197.325 18.9338 198.722 22.2671C199.1 23.1782 199.521 24.0893 199.854 25.0227C199.921 25.2005 200.187 25.1116 200.12 24.956C199.854 24.1782 199.499 23.4227 199.188 22.6449C198.567 21.1338 197.924 19.6449 197.302 18.1338C195.905 14.8005 194.484 11.4671 193.131 8.11156C192.887 7.48934 192.643 6.88935 192.399 6.26712C192.266 5.95601 192.132 5.62268 192.044 5.28934C191.999 5.13379 191.733 5.20045 191.777 5.37823Z" fill="#030064"/>
<path d="M186.985 10.1558C186.74 10.867 186.408 11.5558 186.097 12.2447C185.631 13.2447 185.143 14.2447 184.655 15.2447C183.678 17.2447 182.68 19.2225 181.748 21.2447C181.593 21.5781 181.415 21.9336 181.282 22.2892C181.216 22.467 181.105 22.667 181.082 22.8447C181.06 23.0225 181.326 23.0892 181.349 22.9114C181.371 22.7558 181.46 22.6003 181.504 22.467C181.637 22.1781 181.77 21.867 181.903 21.5781C182.325 20.6892 182.747 19.8225 183.168 18.9336C184.189 16.8225 185.232 14.7336 186.23 12.6225C186.585 11.8447 186.985 11.0447 187.251 10.2447C187.295 10.0447 187.029 9.97807 186.985 10.1558Z" fill="#030064"/>
<path d="M181.104 23.3112C181.57 23.6001 182.059 23.8667 182.569 24.1334C183.057 24.3779 183.545 24.6223 184.056 24.7779C184.233 24.8223 184.3 24.5556 184.122 24.5112C183.612 24.3779 183.124 24.1112 182.658 23.889C182.17 23.6445 181.704 23.3779 181.238 23.089C181.104 22.9779 180.949 23.2223 181.104 23.3112Z" fill="#030064"/>
<path d="M193.042 20.9778C193.397 21.8667 193.818 22.7334 194.24 23.5778C194.484 24.1112 194.75 24.6223 195.017 25.1556C195.194 25.489 195.372 25.8223 195.594 26.1112C195.704 26.2445 195.904 26.0445 195.793 25.9112C195.571 25.6223 195.416 25.2889 195.239 24.9556C194.972 24.4445 194.728 23.9334 194.484 23.4223C194.085 22.5778 193.663 21.7556 193.33 20.889C193.242 20.7334 192.975 20.8001 193.042 20.9778Z" fill="#030064"/>
<path d="M178.109 22.0885C176.689 20.9551 175.025 19.7551 172.983 18.7773C176.778 16.0885 178.73 13.4218 178.841 10.8218C178.863 10.5107 178.841 10.2218 178.797 9.9329C178.531 8.39957 177.399 7.26623 175.424 6.5329C174.048 6.04401 172.451 5.77734 170.676 5.77734C168.057 5.77734 164.907 6.39956 162.666 7.08845C161.689 7.37734 161.889 7.77734 162.266 8.66623C162.466 9.15512 162.599 9.71067 162.976 9.95512C163.487 10.2885 163.531 10.244 163.598 10.2662C163.686 14.0218 163.087 22.2218 163.065 22.7773C163.021 23.444 162.954 24.3996 163.62 24.4885C164.774 24.5773 164.951 24.5551 165.506 24.5551C166.882 24.5551 167.614 23.644 167.725 21.844C167.702 21.6218 167.702 21.5996 168.302 21.5551C168.435 21.5551 168.989 21.4885 169.123 21.4885C170.299 21.4662 169.744 21.1996 171.253 22.3551C172.872 23.5551 174.248 24.6218 175.358 25.5329C175.868 25.9551 176.356 26.4218 176.755 25.8885C177.155 25.3773 179.463 23.1773 178.841 22.644C178.42 22.3329 178.708 22.5551 178.109 22.0885ZM173.405 9.3329C174.093 9.59957 174.47 10.0885 174.559 10.6218C174.736 11.6885 173.96 12.7107 172.096 14.3329C170.853 15.3773 169.411 16.2662 167.747 16.8662C167.725 14.7551 167.658 12.3329 167.525 9.48846C169.167 9.11068 170.41 9.04401 171.519 9.04401C172.229 9.06624 172.872 9.1329 173.405 9.3329Z" fill="#030064"/>
<path d="M163.421 10.444C163.154 10.044 162.955 9.57731 162.799 9.13286C162.599 8.55508 162.444 7.93286 162.333 7.31064C162.311 7.13286 162.045 7.19953 162.067 7.37731C162.156 8.02175 162.333 8.64397 162.533 9.24397C162.688 9.71064 162.888 10.1551 163.154 10.5773C163.265 10.7329 163.51 10.5995 163.421 10.444Z" fill="#030064"/>
<path d="M167.37 24.378C167.658 23.4225 167.814 22.378 167.68 21.378C167.658 21.2002 167.392 21.2669 167.414 21.4447C167.547 22.4002 167.37 23.4002 167.103 24.3114C167.037 24.4891 167.325 24.5558 167.37 24.378Z" fill="#030064"/>
<path d="M166.571 9.84409C165.994 9.91075 165.417 9.99965 164.862 10.1108C164.352 10.2219 163.864 10.2885 163.353 10.3552C163.176 10.3774 163.176 10.6441 163.353 10.6219C164.441 10.5108 165.506 10.2219 166.593 10.1108C166.748 10.0885 166.748 9.82187 166.571 9.84409Z" fill="#030064"/>
<path d="M167.725 24.1995C166.97 24.2884 166.238 24.355 165.484 24.355C164.796 24.355 164.086 24.2884 163.398 24.2439C163.22 24.2217 163.22 24.5106 163.398 24.5106C164.086 24.555 164.796 24.6217 165.484 24.6217C166.238 24.6217 166.97 24.555 167.725 24.4661C167.902 24.4661 167.902 24.1772 167.725 24.1995Z" fill="#030064"/>
<path d="M179.418 23.1777C179.13 23.6 178.819 24 178.486 24.3777C177.909 25.0444 177.31 25.6888 176.689 26.2888C176.556 26.4222 176.755 26.6 176.889 26.4888C177.532 25.8666 178.131 25.2222 178.708 24.5555C179.041 24.1555 179.374 23.7555 179.662 23.3333C179.751 23.1777 179.507 23.0444 179.418 23.1777Z" fill="#030064"/>
<path d="M163.575 11.3111C163.464 12.9777 163.442 14.6444 163.376 16.3111C163.309 18.4222 163.242 20.5555 163.154 22.6666C163.131 23.0444 163.131 23.4222 163.109 23.8C163.109 23.9333 163.087 24.0444 163.087 24.1777C163.087 24.2222 163.087 24.2666 163.087 24.3111C163.087 24.3333 163.065 24.4222 163.087 24.3777C163.065 24.5555 163.331 24.6222 163.353 24.4444C163.42 23.9777 163.42 23.4888 163.442 23.0222C163.487 22.0888 163.509 21.1333 163.553 20.2C163.62 18 163.686 15.8 163.775 13.6222C163.797 12.8444 163.82 12.0888 163.864 11.3111C163.864 11.1333 163.575 11.1333 163.575 11.3111Z" fill="#030064"/>
<path d="M167.614 9.64443C167.792 10.3555 167.814 11.1111 167.836 11.8444C167.903 13 167.925 14.1555 167.947 15.3111C167.969 17.7111 167.969 20.1111 167.814 22.4889C167.792 22.9111 167.747 23.3555 167.681 23.7778C167.658 23.9111 167.636 24.0444 167.592 24.2C167.57 24.2667 167.525 24.3778 167.525 24.4C167.414 24.5333 167.614 24.7333 167.725 24.6C167.836 24.4444 167.88 24.2444 167.903 24.0667C167.969 23.7333 168.014 23.3778 168.036 23.0222C168.125 21.9555 168.169 20.8889 168.191 19.8222C168.258 17.2889 168.258 14.7555 168.125 12.2444C168.08 11.3778 168.058 10.4667 167.858 9.59999C167.836 9.39999 167.57 9.46665 167.614 9.64443Z" fill="#030064"/>
<path d="M179.751 23.2668C178.886 22.5113 178.02 21.7779 177.111 21.0891C175.801 20.1113 174.448 19.2002 173.094 18.2891C172.939 18.2002 172.806 18.4224 172.961 18.5335C174.293 19.4446 175.646 20.3335 176.933 21.2891C177.843 21.9779 178.708 22.7113 179.551 23.4668C179.707 23.578 179.906 23.4002 179.751 23.2668Z" fill="#030064"/>
<path d="M176.8 26.2665C174.648 24.8221 172.606 23.2665 170.476 21.7999C170.077 21.5332 169.7 21.2665 169.278 21.0221C169.123 20.9332 168.99 21.1776 169.145 21.2665C169.988 21.7776 170.787 22.3554 171.586 22.9332C172.717 23.7332 173.827 24.5332 174.958 25.3332C175.513 25.7332 176.09 26.1332 176.667 26.511C176.8 26.5999 176.955 26.3554 176.8 26.2665Z" fill="#030064"/>
<path d="M167.791 16.9332C169.212 16.3776 170.587 15.6887 171.808 14.7554C172.673 14.0887 173.516 13.3332 174.071 12.3554C174.426 11.7332 174.67 10.9554 174.359 10.2665C174.027 9.51096 173.183 9.19985 172.429 9.08874C170.72 8.79985 168.923 9.17763 167.281 9.59985C167.104 9.6443 167.192 9.91096 167.348 9.86652C168.812 9.48874 170.365 9.17763 171.896 9.28874C172.629 9.3554 173.583 9.53318 174.004 10.1998C174.382 10.7776 174.182 11.4887 173.893 12.0443C173.427 12.9332 172.673 13.6665 171.896 14.2887C170.632 15.2887 169.189 16.0443 167.681 16.6221C167.57 16.711 167.636 16.9999 167.791 16.9332Z" fill="#030064"/>
<path d="M178.841 12.4444C179.574 11.0666 179.418 9.44435 178.464 8.22213C177.066 6.44435 174.581 5.8888 172.429 5.77769C170.343 5.66658 168.235 5.95546 166.194 6.42213C166.016 6.46657 166.083 6.73324 166.26 6.6888C169.256 6.02213 172.651 5.59991 175.602 6.64435C177.155 7.19991 178.686 8.33325 178.974 10.0444C179.108 10.8221 178.952 11.6221 178.575 12.311C178.531 12.4666 178.775 12.5999 178.841 12.4444Z" fill="#030064"/>
<path d="M154.9 7.44412C152.126 6.46634 149.242 5.86634 145.203 5.53301C143.872 5.4219 143.672 5.55523 143.473 5.66634C142.762 6.04412 143.007 8.08857 143.162 8.35523C143.317 8.59968 143.961 8.75523 144.449 8.84412C144.493 11.733 143.916 23.1775 144.005 24.9775C145.558 24.7552 151.46 27.1108 158.827 19.8886C161.423 17.2886 162.067 13.4663 160.425 11.2219C159.493 9.95523 158.206 8.6219 154.9 7.44412ZM157.074 14.6663C156.364 17.6663 150.817 21.3552 148.066 20.9552C148.043 18.7775 148.443 12.133 148.332 9.53301C151.061 9.95523 152.526 10.3997 153.923 10.9775C156.187 11.9108 157.429 13.1997 157.074 14.6663Z" fill="#030064"/>
<path d="M142.873 8.62187C143.251 7.64409 143.362 6.59965 143.251 5.55521C143.229 5.37743 142.962 5.37743 142.984 5.55521C143.095 6.57743 142.984 7.59965 142.629 8.55521C142.54 8.73299 142.807 8.79965 142.873 8.62187Z" fill="#030064"/>
<path d="M160.646 12.4667C161.068 13.9778 161.112 15.5556 160.602 17.0445C160.136 18.4445 159.248 19.6667 158.183 20.6889C155.809 22.9334 152.592 24.2223 149.397 24.7556C147.622 25.0445 145.802 25.1111 144.027 24.8C143.849 24.7778 143.783 25.0445 143.96 25.0667C147.244 25.6445 150.75 25.0667 153.812 23.7778C156.675 22.5778 159.493 20.5556 160.713 17.6C161.379 15.9334 161.423 14.1334 160.935 12.4223C160.868 12.2223 160.602 12.2889 160.646 12.4667Z" fill="#030064"/>
<path d="M147.289 9.39924C146.579 9.26591 145.847 9.17702 145.114 9.06591C144.36 8.93258 143.628 8.73258 142.918 8.42147C142.762 8.3548 142.607 8.57702 142.785 8.66591C143.495 8.97702 144.205 9.19925 144.981 9.33258C145.736 9.46591 146.49 9.53258 147.222 9.68814C147.4 9.68814 147.466 9.42146 147.289 9.39924Z" fill="#030064"/>
<path d="M157.141 14.355C156.919 15.6661 155.721 16.755 154.767 17.555C153.435 18.6439 151.904 19.555 150.285 20.155C149.486 20.4439 148.665 20.6661 147.822 20.7106C147.644 20.7106 147.644 20.9995 147.822 20.9772C149.464 20.9106 151.061 20.2217 152.481 19.4217C153.946 18.5995 155.388 17.5772 156.453 16.2439C156.875 15.7106 157.296 15.0884 157.407 14.4217C157.429 14.2661 157.163 14.1772 157.141 14.355Z" fill="#030064"/>
<path d="M148.088 12.888C148.243 14.0214 148.265 15.1992 148.332 16.3325C148.399 17.7769 148.443 19.2436 148.376 20.7103C148.354 21.1769 148.354 21.7103 148.199 22.1769C148.132 22.3547 148.398 22.4214 148.465 22.2436C148.598 21.8658 148.62 21.4214 148.643 20.9992C148.687 20.3103 148.687 19.6436 148.687 18.9547C148.687 17.4436 148.62 15.9547 148.532 14.4436C148.487 13.888 148.465 13.3547 148.376 12.8214C148.332 12.6436 148.066 12.7103 148.088 12.888Z" fill="#030064"/>
<path d="M144.338 14.355C144.094 15.8217 144.027 17.3106 143.938 18.7772C143.85 20.3772 143.761 21.9772 143.761 23.5772C143.761 23.8217 143.761 24.0884 143.783 24.355C143.783 24.4884 143.783 24.6217 143.85 24.7328C143.938 24.8884 144.16 24.755 144.094 24.5995C144.116 24.6439 144.094 24.555 144.094 24.5328C144.094 24.4661 144.072 24.3995 144.072 24.3328C144.072 24.1106 144.049 23.8884 144.049 23.6661C144.049 22.9772 144.072 22.2884 144.094 21.6217C144.16 19.9328 144.249 18.2661 144.382 16.5772C144.449 15.8661 144.493 15.1328 144.626 14.4217C144.626 14.2661 144.36 14.1772 144.338 14.355Z" fill="#030064"/>
<path d="M161.29 13.7554C161.179 12.6443 160.868 11.5332 160.247 10.5999C159.648 9.66656 158.827 8.93323 157.895 8.35545C155.432 6.84434 152.437 6.311 149.619 5.95545C147.444 5.68878 145.27 5.53322 143.095 5.44434C142.918 5.44434 142.918 5.711 143.095 5.711C146.579 5.86656 150.107 6.08878 153.502 6.93323C155.787 7.48878 158.25 8.39989 159.714 10.3332C160.469 11.3332 160.868 12.511 161.001 13.7554C161.024 13.911 161.312 13.9332 161.29 13.7554Z" fill="#030064"/>
<path d="M140.033 15.7329C139.989 11.5774 139.945 8.75518 139.945 7.7774C139.856 7.13295 140.033 6.62184 139.678 6.33295C139.39 6.06629 138.791 6.04406 138.169 5.9774C136.461 5.7774 135.529 5.68851 135.418 6.26629C135.285 7.06629 135.263 19.4663 135.263 20.5552C135.285 22.8218 135.263 23.1329 135.263 23.2885C135.24 24.0218 135.152 24.5107 135.662 24.8441C136.128 25.1774 137.149 25.1774 137.703 25.1552C139.035 25.1107 139.589 25.1552 139.922 24.1774C140.189 23.4441 140.078 21.6441 140.055 19.6663L140.033 15.7329Z" fill="#030064"/>
<path d="M135.107 25.0001C135.041 24.3334 135.13 23.6223 135.152 22.9556C135.218 21.6445 135.285 20.3334 135.374 19.0445C135.551 15.9112 135.751 12.7778 135.818 9.62229C135.84 8.37784 135.884 7.11118 135.773 5.86673C135.751 5.68895 135.485 5.68895 135.507 5.86673C135.596 6.9334 135.574 8.04451 135.574 9.11118C135.551 10.6223 135.485 12.1334 135.396 13.6445C135.263 16.6001 135.063 19.5778 134.908 22.5334C134.863 23.3334 134.752 24.1778 134.841 24.9556C134.841 25.1778 135.13 25.1778 135.107 25.0001Z" fill="#030064"/>
<path d="M139.7 24.6892C138.791 24.8225 137.881 24.8892 136.971 24.867C136.261 24.8448 135.551 24.7337 134.841 24.6892C134.664 24.667 134.664 24.9559 134.841 24.9559C135.573 25.0003 136.306 25.1114 137.038 25.1337C137.97 25.1781 138.879 25.0892 139.789 24.9559C139.945 24.9337 139.878 24.6448 139.7 24.6892Z" fill="#030064"/>
<path d="M139.479 5.91118C138.791 5.91118 138.081 5.88896 137.393 5.84451C136.838 5.82229 136.283 5.75562 135.751 5.71118C135.573 5.68896 135.573 5.97785 135.751 5.97785C136.306 6.02229 136.838 6.06674 137.393 6.11118C138.081 6.15563 138.791 6.15562 139.479 6.17784C139.656 6.20007 139.656 5.9334 139.479 5.91118Z" fill="#030064"/>
<path d="M131.912 19.2896C131.89 19.2896 131.868 19.2674 131.823 19.2674C131.224 19.0896 130.359 19.0007 129.227 19.0007C126.897 19.0007 123.747 19.6674 121.439 20.4007V14.9785C121.306 11.1563 121.55 7.95626 121.506 6.82293C121.483 6.35627 121.483 5.77848 121.239 5.71182C120.973 5.60071 117.889 5.28959 117.445 5.97848C117.312 6.15626 117.356 6.91182 117.334 7.22293C117.334 7.4896 117.068 20.6452 116.979 23.2674C116.979 23.534 117.001 23.7118 117.001 23.8451C116.935 25.0674 117.356 25.8229 119.531 25.4007C119.974 25.3785 120.618 25.0896 121.661 24.8229C123.303 24.4007 123.946 24.2229 124.124 24.1563C126.675 23.4896 126.809 23.3785 128.783 23.1785C129.005 23.1563 130.692 23.0229 131.18 23.0674C131.446 23.0896 131.646 23.0896 131.845 23.1118C132.644 23.1785 132.578 19.4896 131.912 19.2896Z" fill="#030064"/>
<path d="M121.906 20.7116C121.95 20.0449 121.928 19.3782 121.906 18.7338C121.861 17.6449 121.817 16.5782 121.728 15.4894C121.573 13.156 121.373 10.8227 120.973 8.53379C120.84 7.82268 120.751 6.95602 120.33 6.35602C120.219 6.20046 119.997 6.35602 120.085 6.48935C120.441 7.00047 120.529 7.7338 120.64 8.3338C120.84 9.37824 120.973 10.4449 121.107 11.5116C121.351 13.8005 121.528 16.1116 121.617 18.4227C121.639 19.1782 121.684 19.956 121.639 20.7116C121.617 20.8894 121.883 20.8894 121.906 20.7116Z" fill="#030064"/>
<path d="M122.172 20.6002C122.172 18.9779 122.127 17.3335 122.061 15.7113C121.994 13.4446 121.905 11.1779 121.706 8.91127C121.639 8.11127 121.595 7.28905 121.395 6.51127C121.35 6.33349 121.084 6.42238 121.129 6.57794C121.306 7.24461 121.35 7.9335 121.417 8.60016C121.506 9.66683 121.572 10.7113 121.639 11.7779C121.75 14.0002 121.817 16.2224 121.883 18.4446C121.905 19.1557 121.905 19.8891 121.928 20.6002C121.883 20.7779 122.172 20.7779 122.172 20.6002Z" fill="#030064"/>
<path d="M117.334 22.3783C117.334 20.4006 117.423 18.4006 117.467 16.4228C117.556 13.845 117.623 11.245 117.711 8.66723C117.734 7.71168 117.778 6.75612 117.778 5.82279C117.778 5.64501 117.512 5.64501 117.512 5.82279C117.489 7.84501 117.401 9.88946 117.334 11.9117C117.245 14.4895 117.179 17.0672 117.112 19.645C117.09 20.5561 117.068 21.4895 117.068 22.4006C117.045 22.5561 117.334 22.5561 117.334 22.3783Z" fill="#030064"/>
<path d="M132.201 23.0897C132.356 22.5564 132.445 22.0008 132.512 21.4675C132.623 20.6675 132.645 19.8452 132.512 19.0675C132.489 18.8897 132.223 18.9564 132.245 19.1341C132.378 19.9119 132.334 20.6897 132.223 21.4675C132.156 21.9786 132.068 22.5119 131.912 23.023C131.868 23.1786 132.134 23.2675 132.201 23.0897Z" fill="#030064"/>
<path d="M131.801 18.5784C129.183 18.7117 126.587 19.0673 123.991 19.4228C123.392 19.5117 122.77 19.6006 122.171 19.6895C121.994 19.7117 122.06 19.9784 122.238 19.9561C124.812 19.5117 127.408 19.245 130.004 19.0006C130.603 18.9339 131.202 18.8895 131.779 18.8673C131.979 18.845 131.979 18.5561 131.801 18.5784Z" fill="#030064"/>
<path d="M117.512 6.02264C118.066 5.86709 118.621 5.7782 119.176 5.71153C119.62 5.66709 120.086 5.60042 120.552 5.62264C120.729 5.62264 120.729 5.35598 120.552 5.35598C120.086 5.33375 119.598 5.40042 119.132 5.44486C118.555 5.51153 117.978 5.60042 117.423 5.75597C117.268 5.80042 117.334 6.06709 117.512 6.02264Z" fill="#030064"/>
<path d="M132.711 19.3114C132.6 19.0669 132.134 19.0447 131.912 19.0225C131.313 18.9336 130.714 18.9336 130.115 18.9336C128.362 18.9336 126.631 19.0669 124.9 19.2891C123.968 19.4003 123.014 19.5558 122.104 19.778C121.927 19.8225 121.993 20.0891 122.171 20.0447C123.791 19.6669 125.455 19.4669 127.097 19.3336C128.561 19.2225 130.026 19.1336 131.49 19.2447C131.734 19.2669 131.956 19.2891 132.2 19.3336C132.267 19.3558 132.333 19.3558 132.4 19.4003C132.467 19.4225 132.467 19.4447 132.467 19.4447C132.555 19.6225 132.777 19.4891 132.711 19.3114Z" fill="#030064"/>
<path d="M115.626 23.733C115.581 23.533 115.537 23.3552 115.47 23.1997L114.183 20.5775C113.052 18.2664 112.009 15.8886 111.077 13.5108L108.303 6.33302C108.259 6.19968 107.749 5.75524 107.127 5.37746C106.817 5.19968 106.839 5.19968 106.173 5.35524C105.663 5.46635 104.953 5.7108 103.932 6.13302C103.799 6.42191 103.977 6.62191 104.043 6.99968C104.088 7.19968 104.132 7.4219 104.221 7.64413L101.114 15.1775C100.316 17.0886 99.1395 19.5108 97.5863 22.3997C97.3866 22.7552 97.2979 23.0886 97.2979 23.4219C97.6972 24.2219 100.027 25.2886 100.36 25.0219C100.604 24.8441 101.137 24.3775 101.469 23.7775C104.11 22.7775 106.728 21.9552 109.28 21.3108C110.123 23.4219 110.633 24.6664 110.855 25.133C111.077 25.5552 111.321 25.8886 111.587 26.133C112.12 26.3552 114.361 26.1108 115.249 25.3552C115.604 24.8664 115.737 24.3108 115.626 23.733ZM103.489 19.4219C104.576 16.7997 105.441 14.6219 106.107 12.933C106.75 14.7108 107.416 16.5108 108.104 18.333C106.528 18.5775 104.975 18.9552 103.489 19.4219Z" fill="#030064"/>
<path d="M108.082 19.2884C107.971 18.6662 107.749 18.0439 107.549 17.4217C107.239 16.3995 106.906 15.3995 106.573 14.3995C105.863 12.2662 105.131 10.1328 104.465 7.9995C104.332 7.5995 104.221 7.22173 104.11 6.82173C104.043 6.62173 103.977 6.33283 103.955 6.17728C103.932 5.9995 103.666 5.9995 103.688 6.17728C103.733 6.68839 103.955 7.19951 104.11 7.71062C104.398 8.66617 104.731 9.62173 105.042 10.5773C105.774 12.7773 106.506 14.9551 107.216 17.1551C107.438 17.8884 107.704 18.6217 107.86 19.3773C107.838 19.5551 108.104 19.4662 108.082 19.2884Z" fill="#030064"/>
<path d="M97.1426 23.3777C97.4754 22.5777 97.8526 21.7999 98.2298 21.0444C98.8289 19.7777 99.4502 18.5332 100.049 17.2666C101.292 14.711 102.557 12.1555 103.688 9.55547C103.888 9.11102 104.088 8.66658 104.265 8.19991C104.354 7.97769 104.487 7.73325 104.465 7.4888C104.465 7.31102 104.176 7.31102 104.199 7.4888C104.199 7.62214 104.088 7.8888 104.021 8.04436C103.866 8.44436 103.71 8.82213 103.533 9.19991C103.023 10.3555 102.49 11.4888 101.958 12.6221C100.693 15.2888 99.4058 17.911 98.1189 20.5777C97.6973 21.4666 97.2313 22.3777 96.8763 23.2888C96.8098 23.4666 97.076 23.5332 97.1426 23.3777Z" fill="#030064"/>
<path d="M97.054 23.444C97.5865 23.9774 98.1856 24.444 98.8069 24.8663C99.0731 25.044 99.3394 25.2218 99.6057 25.3552C99.761 25.444 99.9385 25.5552 100.138 25.5552C100.316 25.5552 100.316 25.2885 100.138 25.2885C100.138 25.2885 100.116 25.2885 100.072 25.2663C100.027 25.2663 100.005 25.244 99.9607 25.2218C99.8497 25.1774 99.761 25.1329 99.6722 25.0663C99.406 24.9107 99.1619 24.7552 98.8956 24.5774C98.2965 24.1774 97.7418 23.7107 97.2315 23.2218C97.1205 23.1107 96.9208 23.3107 97.054 23.444Z" fill="#030064"/>
<path d="M100.027 25.4446C100.138 25.5779 100.293 25.3779 100.382 25.3113C100.537 25.1557 100.693 24.9779 100.87 24.8002C101.27 24.3557 101.691 23.9113 102.069 23.4224C102.202 23.2446 102.357 23.0668 102.446 22.8668C102.512 22.7113 102.268 22.5557 102.202 22.7335C102.135 22.889 102.024 23.0224 101.935 23.1335C101.78 23.3335 101.603 23.5557 101.425 23.7557C101.07 24.1557 100.715 24.5779 100.338 24.9557C100.271 25.0224 100.205 25.0891 100.138 25.1557C100.116 25.1779 100.094 25.2002 100.072 25.2224C100.072 25.2224 100.049 25.2224 100.049 25.2446C100.072 25.2002 100.205 25.2224 100.227 25.2446C100.116 25.1113 99.9162 25.3113 100.027 25.4446Z" fill="#030064"/>
<path d="M112.941 18.244C112.786 17.6218 112.586 16.9996 112.386 16.3774C112.053 15.3552 111.72 14.3329 111.365 13.3329C110.611 11.1329 109.812 8.93293 108.858 6.79959C108.547 6.1107 108.237 5.3107 107.704 4.77737C107.571 4.64404 107.394 4.84403 107.505 4.97737C107.948 5.42181 108.215 6.08848 108.481 6.66626C108.947 7.64404 109.346 8.64403 109.723 9.64403C110.544 11.7996 111.321 13.9774 112.009 16.1774C112.231 16.8885 112.475 17.5996 112.652 18.3329C112.719 18.5107 112.985 18.4218 112.941 18.244Z" fill="#030064"/>
<path d="M104.754 8.19983C104.732 8.13316 104.732 8.0665 104.709 7.99983C104.709 7.95539 104.709 8.02205 104.709 7.99983V7.97761C104.709 7.95539 104.709 7.95539 104.709 7.93317C104.709 7.88872 104.709 7.8665 104.709 7.84427C104.709 7.79983 104.687 7.75539 104.665 7.71095C104.598 7.55539 104.532 7.37761 104.487 7.22205C104.31 6.75539 104.155 6.31094 103.999 5.84428C103.933 5.6665 103.666 5.75539 103.733 5.91094C103.955 6.53317 104.155 7.13316 104.399 7.75539C104.421 7.79983 104.421 7.8665 104.465 7.91094C104.465 7.93317 104.465 7.8665 104.465 7.88872C104.465 7.91094 104.465 7.91095 104.465 7.93317C104.465 8.04428 104.487 8.17761 104.51 8.28872C104.532 8.44427 104.798 8.37761 104.754 8.19983Z" fill="#030064"/>
<path d="M110.7 13.5776C110.7 13.2443 110.611 12.8887 110.544 12.5554C110.411 11.9998 110.256 11.4443 110.101 10.8887C109.701 9.51092 109.213 8.15536 108.658 6.84425C108.37 6.15536 108.059 5.46648 107.682 4.79981C107.593 4.64425 107.349 4.77758 107.438 4.93314C108.104 6.13314 108.614 7.39981 109.08 8.6887C109.524 9.8887 109.923 11.1109 110.212 12.3554C110.3 12.7331 110.411 13.1554 110.411 13.5554C110.434 13.7554 110.7 13.7554 110.7 13.5776Z" fill="#030064"/>
<path d="M107.793 5.06673C107.904 4.88895 107.771 4.7334 107.571 4.7334C107.261 4.7334 106.95 4.88895 106.662 4.97784C105.663 5.3334 104.687 5.71118 103.688 6.04451C103.511 6.08896 103.6 6.35562 103.755 6.31117C104.62 6.04451 105.463 5.71118 106.307 5.40007C106.617 5.28895 106.95 5.15562 107.283 5.06673C107.372 5.04451 107.483 5.02229 107.571 5.00006C107.616 5.00006 107.616 5.00006 107.616 5.00006C107.616 5.02229 107.549 4.91118 107.571 4.91118C107.571 4.91118 107.594 4.88895 107.549 4.91118C107.46 5.08895 107.682 5.22229 107.793 5.06673Z" fill="#030064"/>
<path d="M95.3229 20.911C95.1675 20.4666 95.0122 19.8443 94.5019 18.7777C94.0803 17.911 94.0581 17.3999 93.5256 17.6221C92.9265 17.8443 92.3496 18.1332 91.7283 18.4666C89.465 19.6221 88.0228 20.8443 85.116 20.6221C82.8972 20.4443 81.6102 17.8666 81.3661 16.9555C80.9224 15.2443 81.8321 13.5777 83.0525 12.311C84.4726 10.8666 85.3601 10.4221 87.5568 10.111C88.7772 9.93323 90.0641 10.4221 91.2845 11.0443C92.1055 11.6666 92.4383 11.6443 93.0818 11.0221C93.4146 10.6888 93.9915 10.511 93.9915 10.1555C94.0137 9.82213 93.7697 9.17768 93.0374 8.42212C92.0611 7.42212 91.5286 7.04434 90.7742 6.73323C90.3304 6.53323 89.5316 6.31101 89.0213 6.24435C87.7121 6.06657 84.7832 5.75546 81.7877 7.88879C78.7035 10.0666 77.0393 12.7777 76.9284 16.0888C76.9062 16.911 76.9506 17.6666 77.0615 18.3555C77.35 20.0221 78.0822 21.5332 79.2138 22.8666C80.9002 24.8443 83.0969 25.8666 85.7151 25.8666C87.9118 25.8666 90.0863 24.9555 92.4827 23.5332C95.8776 21.5555 95.7445 22.1555 95.3229 20.911Z" fill="#030064"/>
<path d="M93.7481 10.1109C93.3486 10.6887 92.838 11.1998 92.2609 11.622C92.1943 11.6665 92.1721 11.7331 92.2165 11.822C92.2609 11.8887 92.3496 11.9109 92.4162 11.8665C93.0156 11.422 93.5705 10.8665 93.9923 10.2442C94.0811 10.1109 93.8369 9.95535 93.7481 10.1109Z" fill="#030064"/>
<path d="M89.9755 6.95499C90.974 7.24387 91.8837 7.88832 92.6603 8.59944C92.971 8.88832 93.2816 9.19943 93.5257 9.55499C93.6145 9.6661 93.681 9.79944 93.7476 9.93277C93.7698 9.97721 93.7698 10.0217 93.792 10.0439C93.792 10.0883 93.792 10.1105 93.792 10.0883C93.681 10.2217 93.8807 10.4217 93.9917 10.2883C94.2801 9.91054 93.7032 9.28832 93.4813 9.02166C92.9044 8.35499 92.2166 7.77721 91.4622 7.31054C91.0184 7.04388 90.5746 6.82166 90.0643 6.6661C89.8646 6.62166 89.798 6.88832 89.9755 6.95499Z" fill="#030064"/>
<path d="M95.1454 21.6885C94.9679 21.8885 94.7238 22.0218 94.4798 22.1774C94.1026 22.4218 93.7032 22.6218 93.326 22.8441C92.505 23.2885 91.6618 23.7107 90.8186 24.1329C90.5524 24.2663 90.2861 24.3996 90.042 24.4885C89.8867 24.5552 89.9533 24.8218 90.1086 24.7552C90.7521 24.5107 91.3512 24.1774 91.9503 23.8663C92.8156 23.4218 93.681 22.9774 94.5241 22.4663C94.7904 22.2885 95.1232 22.1329 95.3229 21.8885C95.4561 21.7552 95.2564 21.5552 95.1454 21.6885Z" fill="#030064"/>
<path d="M93.8362 18.1335C94.2358 18.7112 94.4578 19.4446 94.6798 20.089C94.7908 20.4446 94.9239 20.8001 95.0127 21.1779C95.0349 21.3112 95.0793 21.4446 95.1015 21.5779C95.1015 21.6224 95.1015 21.6446 95.1237 21.689C95.1237 21.7112 95.1237 21.7335 95.1237 21.7335C95.1237 21.7557 95.1237 21.7112 95.1237 21.7557C95.0793 21.9335 95.3457 22.0001 95.3901 21.8224C95.4567 21.6224 95.3679 21.3557 95.3235 21.1557C95.2347 20.7779 95.1237 20.4224 94.9905 20.0446C94.8573 19.6446 94.702 19.2446 94.5466 18.8668C94.4134 18.5557 94.2802 18.2446 94.1026 17.9779C93.9694 17.8668 93.7253 18.0001 93.8362 18.1335Z" fill="#030064"/>
<path d="M92.061 11.5112C88.9102 9.77782 84.428 9.9556 82.076 12.9778C81.4769 13.7556 81.0775 14.6889 80.9222 15.6667C80.9 15.8445 81.1663 15.9112 81.1885 15.7334C81.4547 14.0667 82.431 12.6223 83.8511 11.7334C85.3156 10.8223 87.1129 10.5112 88.8214 10.7334C89.9087 10.8667 90.9293 11.2223 91.8834 11.7556C92.0831 11.8445 92.2385 11.6 92.061 11.5112Z" fill="#030064"/>
<path d="M80.9004 15.1109C80.967 17.0664 81.5439 19.2664 83.4299 20.1998C84.85 20.9109 86.5585 20.7553 88.023 20.3109C88.7552 20.0886 89.4653 19.7998 90.1087 19.3998C90.264 19.3109 90.1309 19.0664 89.9756 19.1553C87.6902 20.5553 83.8293 21.2887 82.1208 18.6664C81.4329 17.622 81.2332 16.3331 81.1889 15.1109C81.1889 14.9331 80.9004 14.9331 80.9004 15.1109Z" fill="#030064"/>
<path fill-rule="evenodd" clip-rule="evenodd" d="M75.6955 21.7456L75.6954 21.7454L75.6954 21.7454C75.4915 21.4697 75.2462 21.1379 74.8869 20.6444C73.4668 18.7555 72.2242 17.0222 71.1813 15.4666C74.4622 10.0301 75.0703 8.64452 75.241 8.2554L75.241 8.25539L75.2411 8.25536C75.2608 8.21028 75.2747 8.17857 75.2863 8.1555C75.3528 8.02216 75.7079 7.24439 75.5304 7.1555C75.3976 7.07572 75.3085 7.01982 75.2281 6.96933C75.0397 6.85105 74.8986 6.76252 74.3543 6.46661C73.8884 6.19994 73.1561 5.82216 72.5571 5.62216C72.0285 5.43433 72.024 5.44331 71.7281 6.0322C71.639 6.20971 71.5233 6.4399 71.3589 6.73327C71.3141 6.8131 71.2693 6.89224 71.2244 6.9707L70.427 8.08884C70.2729 8.31125 70.1188 8.5346 69.9643 8.75849L69.9642 8.75859C69.3773 9.60927 68.7849 10.4679 68.1663 11.3136C66.6973 9.3517 65.4316 7.81933 64.3694 6.75549C64.3028 6.68883 64.2585 6.64439 64.1919 6.59994C63.6783 6.08563 61.3202 7.9901 61.0433 8.82225C61.0126 8.85156 60.9822 8.88116 60.9524 8.91107C60.8496 9.01394 60.945 9.14327 61.0551 9.14596C61.1293 9.40791 61.2533 9.66739 61.4405 9.91105C62.9663 11.9206 64.2952 13.7922 65.3902 15.47C65.0029 16.3013 64.4694 17.0658 63.9379 17.8274C63.7997 18.0255 63.6616 18.2234 63.5263 18.4222C63.3122 18.7406 63.0948 19.0575 62.8772 19.3744C62.7254 19.5957 62.5734 19.8171 62.4226 20.0392C62.3139 20.1818 62.2159 20.3095 62.1283 20.4222C62.083 20.4846 62.0289 20.5558 61.97 20.6333C61.6914 21.0002 61.3042 21.51 61.215 21.9175C61.1742 21.9898 61.1299 22.0639 61.0846 22.1397C60.908 22.4348 60.7166 22.7549 60.6639 23.0888C60.6417 23.2666 60.908 23.3333 60.9302 23.1555C60.9351 23.1159 60.9425 23.0763 60.9521 23.0367C61.507 23.4687 62.0633 23.8978 62.6387 24.2888L62.7319 24.3538L62.7319 24.3538L62.7319 24.3538C63.2138 24.69 63.7153 25.0397 64.2363 25.3111C64.3187 25.3582 64.4011 25.3115 64.4338 25.244C64.5366 25.2777 64.6409 25.3075 64.7466 25.3333C64.9241 25.3777 64.9907 25.111 64.8132 25.0666C64.0144 24.8666 63.3266 24.4444 62.7275 23.8666C62.5795 23.7185 62.4513 23.5703 62.3231 23.4222C62.2689 23.3595 62.2147 23.2968 62.1589 23.2341L62.1727 23.2444C62.573 23.5677 63.0861 23.9136 63.5807 24.2471C63.9359 24.4866 64.2816 24.7196 64.5691 24.9333C64.9908 25.2543 65.4254 24.5605 65.8533 23.8774C65.9882 23.6621 66.1225 23.4477 66.2554 23.2666C66.9877 22.2222 67.8308 20.9333 68.4521 19.9777L72.5792 25.7555C72.8245 26.0502 73.0005 26.2093 73.1616 26.277C73.1374 26.3741 73.2026 26.4911 73.3115 26.4444C73.9106 26.2222 74.5319 25.9777 75.1088 25.6888C75.4061 25.5565 75.7089 25.4132 76.0008 25.2509C76.1257 25.124 76.196 25.0026 76.196 24.8888C76.2182 24.4 75.6413 22.7333 75.6413 22.7333L76.5289 24.7333C76.5547 24.7851 76.5754 24.834 76.5904 24.8805C76.6758 24.8192 76.759 24.7554 76.8395 24.6888C76.8595 24.6745 76.8737 24.6591 76.8828 24.6433C77.1106 24.4938 77.2314 24.3677 77.2605 24.2231C77.3102 23.9765 77.0932 23.676 76.6867 23.1134C76.5861 22.9742 76.4739 22.8189 76.3513 22.6444C76.1129 22.3101 75.9322 22.0656 75.6955 21.7456ZM61.5907 22.7144C61.545 22.6617 61.5038 22.6113 61.4636 22.5621L61.4635 22.5621C61.4202 22.5091 61.3781 22.4576 61.3329 22.4063C61.8929 21.4599 62.7646 20.2503 63.6721 18.9911C64.3439 18.059 65.0352 17.0997 65.6342 16.2C64.4138 17.4222 62.1506 20.6444 61.3518 21.8888C61.2186 22.1111 61.1077 22.3555 61.0189 22.6C60.9967 22.6666 60.9746 22.7555 60.9967 22.8222L61.0633 22.8888C61.076 22.8644 61.089 22.8397 61.1024 22.8147C61.4313 23.0797 61.7608 23.3318 62.0944 23.5746C62.0462 23.5166 61.9986 23.4584 61.951 23.4001L61.9509 23.3999C61.9192 23.363 61.8876 23.3247 61.8556 23.2862C61.7532 23.1624 61.6477 23.0349 61.5293 22.9333C61.4365 22.8559 61.4945 22.7354 61.5907 22.7144ZM65.5528 15.7204L65.568 15.744C65.5324 15.7941 65.4969 15.8442 65.4615 15.8944C65.4927 15.8367 65.5231 15.7787 65.5528 15.7204ZM69.67 9.86601C69.236 10.533 68.7924 11.2148 68.2303 11.7777C68.0972 11.9111 67.8975 11.7111 68.0306 11.6C68.4078 11.2 68.7184 10.7555 69.0291 10.3111L69.0291 10.3111C69.2828 9.93843 69.53 9.56257 69.7769 9.18718L69.777 9.18716L69.777 9.18715C70.178 8.57753 70.5782 7.96912 71.0039 7.37774C71.037 7.33354 71.0701 7.28901 71.1033 7.2443L71.1034 7.24419L71.1035 7.24408C71.3375 6.92915 71.5779 6.60567 71.8693 6.33329C72.0468 6.15551 72.2908 5.93329 72.5793 5.95551C72.7568 5.95551 72.7568 6.22218 72.5793 6.22218C72.3025 6.22218 72.0434 6.52202 71.8646 6.72886L71.8646 6.72887L71.8646 6.72888C71.8427 6.7542 71.822 6.77814 71.8027 6.79996C71.216 7.46093 70.7354 8.21291 70.2607 8.95565L70.2606 8.95588L70.2604 8.95612C70.1607 9.11219 70.0612 9.26785 69.961 9.42218C69.8637 9.56839 69.7671 9.71683 69.67 9.86601Z" fill="#030064"/>
<path fill-rule="evenodd" clip-rule="evenodd" d="M56.4036 5.31081C56.4159 5.33703 56.4279 5.36343 56.4395 5.39C56.0517 5.22186 55.5835 5.16983 55.161 5.13303C54.2957 5.06637 53.4303 5.08859 52.5649 5.13303C50.3017 5.26637 48.0384 5.64414 45.8417 6.24414C44.9451 6.48469 44.0599 6.77152 43.2031 7.11299C42.524 7.2782 42.1907 7.41543 42.0798 7.65546C41.9602 7.91427 42.0992 8.2926 42.3424 8.95439L42.3424 8.9544L42.3424 8.95442C42.4014 9.11501 42.4665 9.29229 42.5356 9.4886C42.568 9.58575 42.6108 9.74581 42.6513 9.89749C42.6943 10.0581 42.7347 10.2092 42.7575 10.2664C43.0512 11.1291 43.1548 11.1268 43.7238 11.1143H43.7238L43.8065 11.1126C43.6386 12.0626 43.6032 13.0503 43.5687 14.0155C43.5647 14.1291 43.5606 14.2424 43.5564 14.3553C43.4903 15.7221 43.4679 17.1108 43.4459 18.478L43.4454 18.5108V18.5111C43.4454 18.8811 43.4454 19.251 43.4304 19.6059C43.6691 19.0766 43.7568 18.4828 43.8227 17.9108C43.8856 17.3759 43.9206 16.8382 43.9387 16.2997C43.937 16.3334 43.9353 16.3668 43.9335 16.3997C43.9179 16.7277 43.8475 17.3961 43.73 18.3895C43.7332 18.2077 43.7361 18.026 43.7389 17.8442C43.7438 17.5257 43.7487 17.2071 43.7561 16.8886C43.7649 16.6046 43.7727 16.3214 43.7806 16.0387C43.8119 14.9124 43.843 13.7943 43.9272 12.6631C43.923 12.325 43.9205 11.9885 43.9337 11.6441C43.9428 11.5899 43.9444 11.5245 43.9462 11.4542C43.9489 11.3517 43.9518 11.2384 43.9781 11.133H44.2667C44.2584 11.1578 44.2532 11.1857 44.2477 11.2156C44.2383 11.2659 44.228 11.3217 44.2001 11.3775C44.1779 11.6441 44.1779 11.8886 44.1779 12.133C44.1779 12.6489 44.1872 13.168 44.1966 13.6878C44.2122 14.5561 44.2279 15.4267 44.2001 16.2886C44.1779 16.9997 44.1335 17.7108 44.0225 18.4219C43.9625 18.8427 43.74 19.1732 43.5015 19.5273C43.4775 19.563 43.4533 19.5989 43.4292 19.6352C43.4274 19.6754 43.4254 19.7154 43.4232 19.7553C43.4232 19.8409 43.4849 19.8852 43.549 19.8884C43.3982 21.2593 43.3129 22.4145 43.3566 23.333V23.4664C43.3566 23.5849 43.3665 23.6837 43.373 23.7495C43.3763 23.7824 43.3788 23.8071 43.3788 23.8219C43.394 23.9641 43.3965 24.1133 43.3989 24.2604C43.4071 24.757 43.4149 25.2302 43.9113 25.333C44.5548 25.4664 45.3092 25.5553 45.8417 25.5553C45.9823 25.5553 46.1161 25.5452 46.2437 25.5259C46.8733 25.564 47.5348 25.4707 48.1494 25.3775C48.8215 25.2851 49.4858 25.1692 50.1469 25.0344C50.9607 24.9895 51.8152 24.9201 52.6981 24.7775C55.2942 24.3553 58.1343 23.333 58.1343 23.333C58.3611 23.2429 58.5599 23.1691 58.7324 23.1051C59.6233 22.7745 59.8146 22.7035 59.5544 21.9775C59.4656 21.733 59.3547 21.3775 59.1994 20.8664C59.1767 20.7901 59.1529 20.7096 59.1283 20.6259L59.1282 20.6256C58.8147 19.5626 58.3492 17.984 57.979 18.0664C57.9333 18.0664 57.5639 18.2128 57.0784 18.4052L57.0782 18.4053L57.0773 18.4057C56.8555 18.4936 56.6095 18.5911 56.3592 18.6886C55.1388 19.1553 54.0072 19.533 52.3431 19.8219C52.1597 19.8482 51.9719 19.8769 51.7773 19.9067L51.7772 19.9068C50.8183 20.0536 49.6951 20.2257 48.1272 20.2442C48.1494 18.9111 48.1494 17.8447 48.1494 17.0669V17.0664C51.3224 16.7997 53.0531 16.2219 54.6507 15.6442C55.0944 15.4886 55.7157 15.2442 55.6935 14.933C55.6693 14.8178 55.5376 14.5169 55.3516 14.1423C55.1387 13.5861 54.9063 13.0316 54.6068 12.5108C54.3848 12.133 54.0075 11.533 53.4747 11.6441C53.4038 11.6708 53.3719 11.7292 53.3703 11.7871L53.3612 11.7905C53.342 11.7883 53.3205 11.7909 53.2972 11.7997C52.267 12.1436 51.215 12.4072 50.1662 12.67L50.1662 12.67C49.4522 12.8489 48.7397 13.0274 48.0366 13.2307C47.9928 11.8796 47.9491 10.7885 47.9053 9.99971C49.5202 9.64031 51.0813 9.47825 52.6048 9.3201L52.6051 9.32007C52.7771 9.30221 52.9486 9.28441 53.1197 9.26638C54.5806 9.1112 55.622 9.30986 56.0896 9.39906L56.0929 9.39971L56.1539 9.41083C56.3564 9.44786 56.4576 9.46638 56.5589 9.46638C56.57 9.46767 56.581 9.46855 56.5918 9.46902C56.5401 9.61537 56.7634 9.74576 56.8475 9.57748C56.8594 9.55316 56.8711 9.52875 56.8826 9.50424C56.9375 9.59527 57.1021 9.60269 57.1361 9.46637C57.1858 9.30057 57.1984 9.11004 57.2109 8.92245L57.2109 8.92242L57.2109 8.92238L57.2109 8.92235L57.2109 8.92232L57.2109 8.9223C57.2151 8.8585 57.2193 8.79505 57.2249 8.73303C57.2302 8.64375 57.2329 8.55323 57.2338 8.46206C57.4486 7.47137 57.3643 6.41661 56.9807 5.48859C56.9433 5.38895 56.8433 5.3661 56.7742 5.39657C56.742 5.31523 56.7074 5.23475 56.67 5.15525C56.559 4.9997 56.337 5.15525 56.4036 5.31081ZM43.9516 15.7531C43.9517 15.5896 43.9526 15.4259 43.9554 15.2623C43.9551 15.4259 43.954 15.5895 43.9516 15.7531ZM54.7957 5.40106C55.144 5.41493 55.5493 5.43108 55.9212 5.51869L55.7698 5.51603C55.6821 5.51456 55.5902 5.51301 55.4938 5.51082C52.1277 5.40207 49.4417 5.82551 45.6884 6.57279C46.7343 6.28405 47.7994 6.05745 48.8594 5.86636C50.7898 5.53303 52.809 5.28859 54.7616 5.3997L54.7957 5.40106ZM47.0287 25.2589C47.3791 25.2355 47.7296 25.1856 48.0692 25.131C47.7452 25.1487 47.4314 25.1702 47.1287 25.1997C47.0959 25.2202 47.0626 25.24 47.0287 25.2589Z" fill="#030064"/>
<path d="M31.8186 26.3109C31.752 26.2665 31.6854 26.2442 31.5967 26.2665C29.9325 23.7998 27.8024 21.4665 25.761 19.1998L25.4282 18.822C25.4282 18.7776 25.406 18.7331 25.3838 18.7109C25.3395 18.6665 25.2951 18.6442 25.2507 18.622L25.1841 18.5554C25.1619 18.5331 25.1619 18.5331 25.1398 18.5109C25.0732 18.3776 24.9179 18.2887 24.7626 18.3776C24.1413 18.6887 23.5644 19.1554 23.0096 19.5998C22.2774 20.1776 21.5452 20.7554 20.8573 21.3998C20.5689 21.6665 20.3026 21.9331 20.0807 22.222C19.9698 22.3776 20.0585 22.5109 20.1917 22.5776C19.7035 23.0665 19.2154 23.5554 18.7272 24.0665C18.6828 24.1109 18.6606 24.1776 18.6606 24.2442C18.6606 24.3109 18.705 24.3776 18.7494 24.3998L19.6148 25.0665C19.6148 25.0665 19.6148 25.0665 19.6148 25.0887C20.8351 26.3109 22.9874 27.9776 25.2729 29.7776C25.6057 30.0442 25.9607 30.3109 26.2936 30.5776C26.4489 30.7554 26.6042 30.9554 26.7373 31.1331C26.8039 31.222 26.9592 31.2442 27.048 31.1776C27.0924 31.222 27.1589 31.2665 27.2033 31.3109C27.2477 31.3331 27.2921 31.3554 27.3364 31.3554C27.403 31.3554 27.4696 31.3331 27.514 31.2665C27.5361 31.222 27.5583 31.1776 27.5583 31.1331C27.5805 31.1331 27.5805 31.1554 27.6027 31.1554C27.6693 31.1554 27.7358 31.1331 27.7802 31.0887L31.8186 26.6665C31.9295 26.5554 31.9073 26.3998 31.8186 26.3109ZM20.1917 24.7776C20.2139 24.822 20.236 24.8442 20.2804 24.8887C20.7464 25.2887 21.2345 25.6887 21.7449 26.1331L19.7035 24.5776C19.7035 24.5776 19.5704 24.4887 19.5038 24.4442C19.4594 24.422 19.4151 24.3776 19.3707 24.3554L19.2154 24.222C19.2376 24.1998 19.2375 24.1998 19.2597 24.1776C19.2819 24.1554 19.2819 24.1554 19.3041 24.1331C19.3263 24.1109 19.3707 24.0665 19.3929 24.0442C20.0807 23.3554 21.2567 22.1998 21.8558 21.622C21.2123 22.2665 19.9254 24.1554 20.1917 24.7776ZM27.1589 30.2887L25.4726 28.9998C24.8069 28.3109 24.1191 27.6442 23.3868 26.9998C24.2966 27.6887 25.0732 28.2887 25.1841 28.3998C26.0717 29.1776 26.0273 29.0442 26.6264 29.5554L27.3586 30.0887C27.3143 30.1554 27.2477 30.222 27.1589 30.2887ZM27.6027 30.622L27.5583 30.5998C27.6249 30.5554 27.6915 30.5109 27.758 30.4442L27.6027 30.622Z" fill="#6965DB"/>
<path d="M0.976313 4.6003C1.02069 4.88919 1.08726 5.17808 1.13164 5.44475C1.3979 6.91142 1.66417 8.24475 2.15232 9.24475L2.35202 10.0003C2.41859 10.2892 2.52953 10.6447 2.64047 10.7336C3.7721 11.7336 5.50282 13.2225 7.36668 14.6447C7.45543 14.7114 7.56637 14.7114 7.65513 14.6447C7.65513 14.6447 7.65513 14.667 7.67732 14.667C7.7217 14.7114 7.76607 14.7336 7.83264 14.7336C7.8992 14.7336 7.96577 14.7114 8.01015 14.667C10.3843 12.0225 12.1594 9.84475 13.4242 8.02253C13.513 7.93364 13.5351 7.80031 13.5351 7.6892C13.6239 7.60031 13.6905 7.48919 13.7792 7.42253C13.868 7.33364 13.868 7.17808 13.7792 7.11142L13.757 7.08919C13.757 7.04475 13.7349 6.97808 13.6905 6.95586C13.1358 6.42252 12.7364 6.04475 12.3148 5.64475C11.5825 4.95586 10.8281 4.24475 9.23053 2.64475L9.20834 2.62253C9.18615 2.60031 9.16397 2.57808 9.11959 2.57808C8.67581 2.42253 7.76607 2.26697 6.63445 2.06697C4.9481 1.77808 2.66266 1.37808 0.599109 0.755859C0.599109 0.755859 0.465973 0.755861 0.443785 0.778083C0.421596 0.800305 0.39941 0.822528 0.377221 0.84475C0.355032 0.866973 0.33284 0.889193 0.199707 0.933638C0.221896 0.933638 0.221898 0.933638 0.244087 0.933638H0.199707C0.221896 1.06697 0.2219 1.15586 0.266277 1.31141C0.266277 1.35586 0.355031 1.71141 0.355031 1.75586L0.976313 4.6003ZM13.2911 7.22253L13.0248 6.95586C13.0914 7.04475 13.1801 7.11142 13.2911 7.22253ZM10.4731 10.9559C10.4509 10.9781 10.4509 10.9781 10.4287 11.0003C10.4287 10.9781 10.4509 10.9559 10.4731 10.9559ZM8.85332 2.95586C8.98645 3.08919 9.54117 3.62253 9.67431 3.73364C9.0974 3.46697 7.65513 2.80031 6.98947 2.57808C7.65513 2.71142 8.56487 2.84475 8.85332 2.95586ZM1.24258 1.84475C1.57541 2.42253 1.84168 4.42253 2.10794 6.37809C1.95262 5.75586 1.84168 5.13364 1.70855 4.55586C1.50885 3.53364 1.30915 2.62253 1.04288 1.82253C1.08726 1.82253 1.15383 1.82253 1.24258 1.84475ZM1.10945 1.37808C1.02069 1.37808 0.931936 1.35586 0.86537 1.35586C0.86537 1.33364 0.865368 1.31141 0.84318 1.31141C0.954123 1.31141 1.02069 1.33364 1.10945 1.37808ZM0.244087 1.55586C0.244087 1.53364 0.244087 1.53364 0.244087 1.55586V1.55586Z" fill="#6965DB"/>
<path d="M31.4639 1.0669C31.4861 0.978016 31.0201 0.578015 31.1754 0.555793C31.5083 0.533571 31.5083 0.0224609 31.1754 0.0224609C30.7317 0.0446832 30.2657 0.155793 29.8441 0.22246C29.0675 0.378015 28.2687 0.53357 27.4921 0.711348C25.7392 1.08913 24.0085 1.48913 22.2777 1.95579C21.7452 2.11135 21.1461 2.22246 20.6358 2.48913C20.4583 2.57801 20.4805 2.75579 20.5692 2.8669C20.5248 2.88912 20.5026 2.88913 20.4583 2.91135C20.3029 2.93357 20.1698 2.95579 20.0145 2.97801C19.8814 3.00024 19.8148 3.11135 19.837 3.24468C19.837 3.26691 19.8592 3.31135 19.8592 3.33357C18.9272 4.57802 17.8844 5.88912 16.7527 7.28912C15.6433 8.57801 14.4673 9.93357 13.2913 11.3336C9.5414 15.7336 5.30335 20.7336 0.621518 25.1336C0.532763 25.2225 0.532763 25.3558 0.621518 25.4447C0.643707 25.4669 0.665899 25.4891 0.688088 25.4891C0.621522 25.5558 0.554957 25.6002 0.488391 25.6669C0.444013 25.7113 0.42182 25.7558 0.42182 25.8002C0.399632 25.8225 0.355255 25.8669 0.333067 25.9114C0.244312 26.0002 0.244313 26.1558 0.355257 26.2225C0.444012 26.3113 0.599332 26.3113 0.665898 26.2002C0.688087 26.178 0.688089 26.1558 0.710278 26.1558C0.843411 26.0225 1.06529 26.0225 1.19843 26.1558C1.46469 26.4447 1.73096 26.7336 1.97503 26.978L1.42031 26.5113C1.33156 26.4225 1.17624 26.4447 1.10967 26.5336C1.02092 26.6225 1.04311 26.778 1.13186 26.8447L7.03407 31.8002C7.07845 31.8447 7.12282 31.8447 7.18939 31.8447C7.25596 31.8447 7.30034 31.8225 7.34472 31.778C7.38909 31.7336 7.43347 31.6891 7.47785 31.6447C7.50004 31.6669 7.54441 31.6669 7.5666 31.6669C7.63317 31.6669 7.67754 31.6447 7.72192 31.6002C15.7099 23.5558 22.1446 17.4891 29.5113 12.0669C29.5778 12.0225 29.6 11.9336 29.6 11.8669C29.6888 11.8669 29.7554 11.8002 29.7997 11.7114C31.1532 7.5558 31.4195 3.8669 31.5083 2.04468V2.02246C31.5083 2.00024 31.5305 1.97802 31.5305 1.95579C31.5526 1.91135 31.5526 1.88913 31.5526 1.88913C31.6192 1.62246 31.5748 1.31135 31.4639 1.0669ZM17.1743 7.60024C17.5294 7.20024 17.8844 6.77801 18.2394 6.40023C15.954 9.42246 12.1597 14.0669 6.79 19.6002C10.4511 15.5336 14.1345 11.3336 17.1743 7.60024ZM4.23829 28.6225C4.26048 28.6225 4.30485 28.6225 4.30485 28.6225C4.28266 28.6225 4.26048 28.6225 4.23829 28.6225ZM6.98969 31.178C6.9675 31.1558 6.9675 31.1558 6.98969 31.1558C6.98969 31.1558 6.98969 31.1558 6.98969 31.178ZM10.2958 28.3113C10.4733 28.1113 10.6508 27.9336 10.8505 27.7336C10.8505 27.7336 10.8505 27.7558 10.8727 27.7558C10.673 27.9336 10.4955 28.1113 10.2958 28.3113ZM11.2056 27.4225C11.3165 27.3113 11.4274 27.1558 11.5606 27.0225C11.5606 27.0225 11.5606 27.0225 11.5828 27.0002C12.8919 25.6447 14.2454 24.2891 15.6211 22.9114L15.6433 22.8891C15.9761 22.6225 16.3755 22.3336 16.7306 22.0669C14.9111 23.778 13.0916 25.5558 11.2056 27.4225ZM19.8148 5.17802C19.0826 6.13357 18.2616 7.40023 17.5737 8.40024C15.3992 11.5558 8.40978 19.2669 8.25446 19.4002C7.16721 20.4447 3.92764 23.5558 1.86409 25.5113C1.81971 25.5558 1.77533 25.6002 1.73096 25.6447C1.62001 25.5113 1.62001 25.3113 1.75315 25.2002C11.6271 15.8891 17.6181 8.13357 20.0367 4.73357C19.9701 4.88913 19.9257 5.02246 19.8148 5.17802ZM23.6535 9.73357C22.7659 9.22246 22.3443 8.42246 22.5884 7.64468L22.655 7.37802C22.6771 7.31135 22.7215 7.22246 22.7659 7.1558C23.01 6.7558 23.365 6.42246 23.7644 6.22246C23.7866 6.22246 23.8088 6.22246 23.831 6.20024C23.8088 6.15579 23.8088 6.08913 23.8088 6.02246C23.831 5.88913 23.9197 5.80024 24.075 5.80024C24.3413 5.80024 25.1623 6.04468 25.4729 6.31135C25.5617 6.37801 25.6504 6.4669 25.7392 6.55579C25.8501 6.68913 26.0276 6.91135 26.1164 7.08913C26.1608 7.11135 26.2052 7.33357 26.2717 7.44468C26.3161 7.62246 26.3605 7.82246 26.3383 8.00024C26.3161 8.02246 26.3383 8.1558 26.3161 8.1558C26.2717 8.44468 26.183 8.73357 26.0276 8.97801C26.0055 9.00024 26.0055 9.02246 25.9833 9.04468C25.9833 9.04468 25.9833 9.04468 25.9611 9.0669C25.8501 9.24468 25.6948 9.40024 25.5395 9.51135C25.0292 9.8669 24.4522 9.97802 23.8753 9.82246C23.8753 9.82246 23.72 9.75579 23.6535 9.73357ZM30.1326 9.0669C29.9329 9.88912 29.711 10.7336 29.4225 11.6002C29.4225 11.6225 29.4003 11.6669 29.4225 11.6891C29.3782 11.6891 29.356 11.7113 29.3116 11.7336C27.5587 13.0225 25.8501 14.378 24.1416 15.7558C25.6061 14.4447 27.0705 13.1114 28.6015 11.8002C29.0453 11.4002 29.356 10.8891 29.4447 10.3113L29.6666 8.97801C29.6666 8.95579 29.6666 8.9558 29.6666 8.93357C29.7775 8.66691 30.1991 8.77801 30.1326 9.0669Z" fill="#6965DB"/>
</g>
<defs>
<clipPath id="clip0_18889_162781">
<rect width="221" height="32" fill="white"/>
</clipPath>
</defs>
</svg>
